# xmcd
#
# Track frame offsets: 
#        150
#        4175
#        23887
#        49635
#        72452
#        76767
#        99822
#        123237
#        149000
#        152050
#        177200
#        200995
#        226672
#        252752
#
# Disc length: 4216 seconds
#
# Revision: 5
# Processed by: cddbd v1.5.2PL0 Copyright (c) Steve Scherf et al.
# Submitted via: ExactAudioCopy v1.3
#
DISCID=b110760e
DTITLE=MISIA - Mother Father Brother Sister
DYEAR=1998
DGENRE=JPop
TTITLE0=Never gonna cry! strings overture
TTITLE1=K.I.T
TTITLE2=恋する季節
TTITLE3=I'm over here 〜気づいて〜
TTITLE4=Interlude #1
TTITLE5=Tell me
TTITLE6=キスして抱きしめて
TTITLE7=Cry
TTITLE8=Interlude #2
TTITLE9=小さな恋
TTITLE10=陽のあたる場所
TTITLE11=星の降る丘
TTITLE12=つつみ込むように… (DAVE“EQ3”DUB MIX)
TTITLE13=Never gonna cry!
EXTD=YEAR: 1998
EXTT0=
EXTT1=
EXTT2=
EXTT3=
EXTT4=
EXTT5=
EXTT6=
EXTT7=
EXTT8=
EXTT9=
EXTT10=
EXTT11=
EXTT12=
EXTT13=
PLAYORDER=
